<mxfile host="Electron" modified="2023-06-06T14:25:38.987Z" agent="Mozilla/5.0 (X11; Linux x86_64) AppleWebKit/537.36 (KHTML, like Gecko) draw.io/21.2.8 Chrome/112.0.5615.165 Electron/24.2.0 Safari/537.36" etag="HNtE1p3S-SszOwez46xI" version="21.2.8" type="device">
  <diagram id="OXYM0aOBeZ_LAYPFpLr3" name="Page-1">
    <mxGraphModel dx="2364" dy="685" grid="1" gridSize="10" guides="1" tooltips="1" connect="1" arrows="1" fold="1" page="1" pageScale="1" pageWidth="1169" pageHeight="827" math="0" shadow="0">
      <root>
        <mxCell id="0" />
        <mxCell id="1" parent="0" />
        <mxCell id="701ggUMQmQuMXo9_Sw_D-1" value="Sales" style="rounded=1;whiteSpace=wrap;html=1;" parent="1" vertex="1">
          <mxGeometry x="490" y="30" width="120" height="60" as="geometry" />
        </mxCell>
        <mxCell id="701ggUMQmQuMXo9_Sw_D-2" value="Contractual &amp;amp; Operations" style="rounded=1;whiteSpace=wrap;html=1;" parent="1" vertex="1">
          <mxGeometry x="490" y="110" width="120" height="60" as="geometry" />
        </mxCell>
        <mxCell id="701ggUMQmQuMXo9_Sw_D-3" value="Finance" style="rounded=1;whiteSpace=wrap;html=1;" parent="1" vertex="1">
          <mxGeometry x="490" y="190" width="120" height="60" as="geometry" />
        </mxCell>
        <mxCell id="701ggUMQmQuMXo9_Sw_D-4" value="Planning" style="rounded=1;whiteSpace=wrap;html=1;" parent="1" vertex="1">
          <mxGeometry x="490" y="270" width="120" height="60" as="geometry" />
        </mxCell>
        <mxCell id="701ggUMQmQuMXo9_Sw_D-5" value="Team Lead&lt;br&gt;Eli" style="rounded=1;whiteSpace=wrap;html=1;" parent="1" vertex="1">
          <mxGeometry x="410" y="354" width="120" height="60" as="geometry" />
        </mxCell>
        <mxCell id="701ggUMQmQuMXo9_Sw_D-6" value="Team Lead&lt;br&gt;Amy" style="rounded=1;whiteSpace=wrap;html=1;" parent="1" vertex="1">
          <mxGeometry x="560" y="354" width="120" height="60" as="geometry" />
        </mxCell>
        <mxCell id="701ggUMQmQuMXo9_Sw_D-8" value="Assistant &amp;amp; Data Modeller&lt;br&gt;Luna" style="rounded=1;whiteSpace=wrap;html=1;fillColor=#ffe6cc;strokeColor=#d79b00;" parent="1" vertex="1">
          <mxGeometry x="620" y="510" width="120" height="60" as="geometry" />
        </mxCell>
        <mxCell id="701ggUMQmQuMXo9_Sw_D-9" value="Architecture" style="rounded=1;whiteSpace=wrap;html=1;" parent="1" vertex="1">
          <mxGeometry x="1410" y="354" width="120" height="60" as="geometry" />
        </mxCell>
        <mxCell id="701ggUMQmQuMXo9_Sw_D-10" value="Timeline" style="rounded=1;whiteSpace=wrap;html=1;" parent="1" vertex="1">
          <mxGeometry x="1260" y="354" width="120" height="60" as="geometry" />
        </mxCell>
        <mxCell id="701ggUMQmQuMXo9_Sw_D-11" value="User Roles" style="rounded=1;whiteSpace=wrap;html=1;" parent="1" vertex="1">
          <mxGeometry x="1690" y="354" width="120" height="60" as="geometry" />
        </mxCell>
        <mxCell id="701ggUMQmQuMXo9_Sw_D-12" value="ER Diagram" style="rounded=1;whiteSpace=wrap;html=1;" parent="1" vertex="1">
          <mxGeometry x="1550" y="354" width="120" height="60" as="geometry" />
        </mxCell>
        <mxCell id="701ggUMQmQuMXo9_Sw_D-13" value="Training new Staff" style="rounded=1;whiteSpace=wrap;html=1;fillColor=#dae8fc;strokeColor=#6c8ebf;" parent="1" vertex="1">
          <mxGeometry x="750" y="354" width="120" height="60" as="geometry" />
        </mxCell>
        <mxCell id="701ggUMQmQuMXo9_Sw_D-14" value="..." style="rounded=1;whiteSpace=wrap;html=1;" parent="1" vertex="1">
          <mxGeometry x="1830" y="354" width="120" height="60" as="geometry" />
        </mxCell>
        <mxCell id="701ggUMQmQuMXo9_Sw_D-15" value="Lead Developer" style="rounded=1;whiteSpace=wrap;html=1;" parent="1" vertex="1">
          <mxGeometry x="490" y="430" width="120" height="60" as="geometry" />
        </mxCell>
        <mxCell id="701ggUMQmQuMXo9_Sw_D-16" value="Ticket Queue" style="rounded=1;whiteSpace=wrap;html=1;" parent="1" vertex="1">
          <mxGeometry x="725" y="850" width="120" height="60" as="geometry" />
        </mxCell>
        <mxCell id="701ggUMQmQuMXo9_Sw_D-17" value="Milestones" style="rounded=1;whiteSpace=wrap;html=1;" parent="1" vertex="1">
          <mxGeometry x="865" y="850" width="120" height="60" as="geometry" />
        </mxCell>
        <mxCell id="701ggUMQmQuMXo9_Sw_D-18" value="Labels" style="rounded=1;whiteSpace=wrap;html=1;" parent="1" vertex="1">
          <mxGeometry x="1005" y="850" width="120" height="60" as="geometry" />
        </mxCell>
        <mxCell id="701ggUMQmQuMXo9_Sw_D-19" value="Wirefames" style="rounded=1;whiteSpace=wrap;html=1;" parent="1" vertex="1">
          <mxGeometry x="790" y="940" width="120" height="60" as="geometry" />
        </mxCell>
        <mxCell id="701ggUMQmQuMXo9_Sw_D-20" value="User Stories" style="rounded=1;whiteSpace=wrap;html=1;" parent="1" vertex="1">
          <mxGeometry x="945" y="940" width="120" height="60" as="geometry" />
        </mxCell>
        <mxCell id="701ggUMQmQuMXo9_Sw_D-21" value="Documentation" style="rounded=1;whiteSpace=wrap;html=1;" parent="1" vertex="1">
          <mxGeometry x="645" y="1020" width="120" height="60" as="geometry" />
        </mxCell>
        <mxCell id="701ggUMQmQuMXo9_Sw_D-22" value="User" style="rounded=1;whiteSpace=wrap;html=1;" parent="1" vertex="1">
          <mxGeometry x="1140" y="850" width="120" height="60" as="geometry" />
        </mxCell>
        <mxCell id="701ggUMQmQuMXo9_Sw_D-23" value="Admin" style="rounded=1;whiteSpace=wrap;html=1;" parent="1" vertex="1">
          <mxGeometry x="790" y="1020" width="120" height="60" as="geometry" />
        </mxCell>
        <mxCell id="701ggUMQmQuMXo9_Sw_D-24" value="Developer" style="rounded=1;whiteSpace=wrap;html=1;" parent="1" vertex="1">
          <mxGeometry x="940" y="1103" width="120" height="60" as="geometry" />
        </mxCell>
        <mxCell id="701ggUMQmQuMXo9_Sw_D-25" value="Devops" style="rounded=1;whiteSpace=wrap;html=1;" parent="1" vertex="1">
          <mxGeometry x="750" y="510" width="120" height="60" as="geometry" />
        </mxCell>
        <mxCell id="701ggUMQmQuMXo9_Sw_D-26" value="About - make sure Kartoza logo etc there and IDS" style="rounded=1;whiteSpace=wrap;html=1;" parent="1" vertex="1">
          <mxGeometry x="790" y="1103" width="120" height="60" as="geometry" />
        </mxCell>
        <mxCell id="701ggUMQmQuMXo9_Sw_D-27" value="Landing" style="rounded=1;whiteSpace=wrap;html=1;" parent="1" vertex="1">
          <mxGeometry x="940" y="1020" width="120" height="60" as="geometry" />
        </mxCell>
        <mxCell id="701ggUMQmQuMXo9_Sw_D-28" value="License" style="rounded=1;whiteSpace=wrap;html=1;" parent="1" vertex="1">
          <mxGeometry x="790" y="1183" width="120" height="60" as="geometry" />
        </mxCell>
        <mxCell id="701ggUMQmQuMXo9_Sw_D-29" value="Timesheets" style="rounded=1;whiteSpace=wrap;html=1;" parent="1" vertex="1">
          <mxGeometry x="740" y="190" width="120" height="60" as="geometry" />
        </mxCell>
        <mxCell id="701ggUMQmQuMXo9_Sw_D-30" value="Time Planning" style="rounded=1;whiteSpace=wrap;html=1;" parent="1" vertex="1">
          <mxGeometry x="890" y="190" width="120" height="60" as="geometry" />
        </mxCell>
        <mxCell id="701ggUMQmQuMXo9_Sw_D-31" value="Client Satisfaction" style="rounded=1;whiteSpace=wrap;html=1;" parent="1" vertex="1">
          <mxGeometry x="1040" y="190" width="120" height="60" as="geometry" />
        </mxCell>
        <mxCell id="701ggUMQmQuMXo9_Sw_D-32" value="Marina" style="rounded=1;whiteSpace=wrap;html=1;" parent="1" vertex="1">
          <mxGeometry x="890" y="100" width="120" height="60" as="geometry" />
        </mxCell>
        <mxCell id="701ggUMQmQuMXo9_Sw_D-33" value="Documentation&lt;br&gt;Writer" style="rounded=1;whiteSpace=wrap;html=1;" parent="1" vertex="1">
          <mxGeometry x="230" y="510" width="120" height="60" as="geometry" />
        </mxCell>
        <mxCell id="701ggUMQmQuMXo9_Sw_D-34" value="Tester" style="rounded=1;whiteSpace=wrap;html=1;" parent="1" vertex="1">
          <mxGeometry x="360" y="510" width="120" height="60" as="geometry" />
        </mxCell>
        <mxCell id="701ggUMQmQuMXo9_Sw_D-35" value="Jeremy" style="rounded=1;whiteSpace=wrap;html=1;" parent="1" vertex="1">
          <mxGeometry x="300" y="660" width="120" height="60" as="geometry" />
        </mxCell>
        <mxCell id="701ggUMQmQuMXo9_Sw_D-36" value="Playwright / pyTest / Scripts /&amp;nbsp;" style="rounded=1;whiteSpace=wrap;html=1;" parent="1" vertex="1">
          <mxGeometry x="300" y="590" width="120" height="60" as="geometry" />
        </mxCell>
        <mxCell id="701ggUMQmQuMXo9_Sw_D-37" value="Developer" style="rounded=1;whiteSpace=wrap;html=1;" parent="1" vertex="1">
          <mxGeometry x="490" y="510" width="120" height="60" as="geometry" />
        </mxCell>
        <mxCell id="LJ_1qu8HbbSsqx_md74M-1" value="Code Review" style="rounded=1;whiteSpace=wrap;html=1;" vertex="1" parent="1">
          <mxGeometry x="750" y="430" width="120" height="60" as="geometry" />
        </mxCell>
        <mxCell id="LJ_1qu8HbbSsqx_md74M-2" value="" style="endArrow=none;html=1;rounded=0;" edge="1" parent="1">
          <mxGeometry width="50" height="50" relative="1" as="geometry">
            <mxPoint x="437" y="420" as="sourcePoint" />
            <mxPoint x="437" y="340" as="targetPoint" />
          </mxGeometry>
        </mxCell>
        <mxCell id="LJ_1qu8HbbSsqx_md74M-3" value="80%" style="text;html=1;strokeColor=none;fillColor=none;align=center;verticalAlign=middle;whiteSpace=wrap;rounded=0;" vertex="1" parent="1">
          <mxGeometry x="430" y="330" width="60" height="30" as="geometry" />
        </mxCell>
        <mxCell id="LJ_1qu8HbbSsqx_md74M-4" value="50%" style="text;html=1;strokeColor=none;fillColor=none;align=center;verticalAlign=middle;whiteSpace=wrap;rounded=0;" vertex="1" parent="1">
          <mxGeometry x="570" y="330" width="60" height="30" as="geometry" />
        </mxCell>
        <mxCell id="LJ_1qu8HbbSsqx_md74M-5" value="20%" style="text;html=1;strokeColor=none;fillColor=none;align=center;verticalAlign=middle;whiteSpace=wrap;rounded=0;" vertex="1" parent="1">
          <mxGeometry x="380" y="330" width="60" height="30" as="geometry" />
        </mxCell>
        <mxCell id="LJ_1qu8HbbSsqx_md74M-6" value="50%" style="text;html=1;strokeColor=none;fillColor=none;align=center;verticalAlign=middle;whiteSpace=wrap;rounded=0;" vertex="1" parent="1">
          <mxGeometry x="650" y="330" width="60" height="30" as="geometry" />
        </mxCell>
        <mxCell id="LJ_1qu8HbbSsqx_md74M-7" value="" style="endArrow=none;html=1;rounded=0;" edge="1" parent="1">
          <mxGeometry width="50" height="50" relative="1" as="geometry">
            <mxPoint x="619.71" y="424" as="sourcePoint" />
            <mxPoint x="619.71" y="344" as="targetPoint" />
          </mxGeometry>
        </mxCell>
        <mxCell id="LJ_1qu8HbbSsqx_md74M-8" value="User Stories" style="rounded=1;whiteSpace=wrap;html=1;" vertex="1" parent="1">
          <mxGeometry x="-30" y="510" width="120" height="60" as="geometry" />
        </mxCell>
        <mxCell id="LJ_1qu8HbbSsqx_md74M-9" value="Wireframing" style="rounded=1;whiteSpace=wrap;html=1;" vertex="1" parent="1">
          <mxGeometry x="100" y="510" width="120" height="60" as="geometry" />
        </mxCell>
        <mxCell id="LJ_1qu8HbbSsqx_md74M-12" style="edgeStyle=orthogonalEdgeStyle;rounded=0;orthogonalLoop=1;jettySize=auto;html=1;entryX=0.5;entryY=0;entryDx=0;entryDy=0;" edge="1" parent="1" source="LJ_1qu8HbbSsqx_md74M-10" target="LJ_1qu8HbbSsqx_md74M-11">
          <mxGeometry relative="1" as="geometry" />
        </mxCell>
        <mxCell id="LJ_1qu8HbbSsqx_md74M-14" style="edgeStyle=orthogonalEdgeStyle;rounded=0;orthogonalLoop=1;jettySize=auto;html=1;" edge="1" parent="1" source="LJ_1qu8HbbSsqx_md74M-10" target="LJ_1qu8HbbSsqx_md74M-13">
          <mxGeometry relative="1" as="geometry" />
        </mxCell>
        <mxCell id="LJ_1qu8HbbSsqx_md74M-10" value="Support&lt;br&gt;Seabilwe - 1st Line" style="rounded=1;whiteSpace=wrap;html=1;" vertex="1" parent="1">
          <mxGeometry x="880" y="510" width="120" height="60" as="geometry" />
        </mxCell>
        <mxCell id="LJ_1qu8HbbSsqx_md74M-11" value="Developer" style="rounded=1;whiteSpace=wrap;html=1;" vertex="1" parent="1">
          <mxGeometry x="880" y="600" width="120" height="60" as="geometry" />
        </mxCell>
        <mxCell id="LJ_1qu8HbbSsqx_md74M-13" value="Devops" style="rounded=1;whiteSpace=wrap;html=1;" vertex="1" parent="1">
          <mxGeometry x="1005" y="600" width="120" height="60" as="geometry" />
        </mxCell>
      </root>
    </mxGraphModel>
  </diagram>
</mxfile>
